<?xml version="1.0" ?><svg viewBox="0 0 1501.333 1706.667" xmlns="http://www.w3.org/2000/svg" xmlns:xlink="http://www.w3.org/1999/xlink"><style>:root>svg{display:none}:root>svg:target{display:block}</style><svg viewBox="0 0 512 512" id="first" xmlns="http://www.w3.org/2000/svg"><path d="M257.7 384.5l65.6-57.4H51.6V442h271.8l-65.7-57.5zM122.5 408c-3.5 2.6-8 4-13.7 4-5.4 0-10.2-1.4-14.2-4.3s-6-7-5.9-12.2l.1-.2h8.6c0 3.2 1.1 5.6 3.3 7.3 2.2 1.6 4.9 2.4 8.1 2.4 3.2 0 5.6-.7 7.4-2 1.7-1.3 2.6-3.1 2.6-5.4 0-2.2-.8-4.1-2.4-5.5-1.6-1.4-4.4-2.7-8.4-3.8-5.8-1.6-10.2-3.7-13.3-6.3-3.1-2.6-4.7-6-4.7-10.1 0-4.3 1.7-7.9 5.1-10.6 3.4-2.8 7.8-4.2 13.2-4.2 5.8 0 10.4 1.5 13.9 4.6 3.5 3.1 5.1 6.9 5 11.5l-.1.2h-8.6c0-2.8-.9-5.1-2.8-6.7-1.9-1.7-4.4-2.5-7.5-2.5-3 0-5.3.7-7 2.1-1.6 1.4-2.4 3.3-2.4 5.5 0 2.1.9 3.8 2.7 5.1 1.8 1.3 4.7 2.6 8.9 3.8 5.6 1.6 9.9 3.7 12.8 6.4 2.9 2.7 4.4 6.2 4.4 10.4.1 4.3-1.6 7.9-5.1 10.5zm39.1 3.2h-8.5L134 357.7h9.5l12.7 39 1 3.9h.2l.9-3.8 12.8-39h9.5l-19 53.4zm66.7-7.2c-1.5 2.1-3.8 3.9-7 5.6-3.2 1.6-7.4 2.4-12.5 2.4-6.3 0-11.5-2-15.6-6.1s-6.1-9.3-6.1-15.8v-11.2c0-6.5 2-11.7 5.9-15.8 3.9-4.1 9-6.1 15.2-6.1 6.2 0 11.1 1.6 14.5 4.7 3.5 3.1 5.2 7.2 5.1 12.3l-.1.2h-8.5c0-3-.9-5.4-2.8-7.3-1.9-1.8-4.6-2.8-8.1-2.8-3.7 0-6.7 1.4-8.9 4.1-2.3 2.8-3.4 6.3-3.4 10.5v11.2c0 4.3 1.2 7.9 3.5 10.6 2.4 2.8 5.4 4.2 9.2 4.2 2.9 0 5.1-.3 6.8-1 1.7-.6 2.9-1.4 3.8-2.4v-11.1h-11.2v-6.7h20.1V404zM455.8 117.2h-27.9v-54h-63.1v54H337c-4 0-6.1 4.2-3.4 6.8l59.4 68.9c1.8 1.8 5 1.8 6.8 0l59.4-68.9c2.7-2.7.6-6.8-3.4-6.8zM364.8 28.9h63.1v24.5h-63.1z"/><path d="M389.5 206v259.4c0 15.1-12.2 27.3-27.3 27.3H99.6c-15.1 0-27.3-12.2-27.3-27.3v-14.6H58.9v20c0 19.5 15.8 35.4 35.4 35.4h273.2c19.5 0 35.4-15.8 35.4-35.4V206.1c-2 .8-4.2 1.2-6.5 1.2-2.4 0-4.8-.5-6.9-1.3zM72.3 81.1c0-15.1 12.2-27.3 27.3-27.3h252.1V40.5H94.3c-19.5 0-35.4 15.8-35.4 35.4v242.5h13.4V81.1z"/><path d="M323.2 132H112.3v19.4H340l-16.1-18.6c-.3-.2-.5-.5-.7-.8zM112.3 163.5h237.2v19.4H112.3zM112.3 195h237.2v19.4H112.3zM112.3 226.6h237.2V246H112.3zM112.3 258.1h185.8v19.4H112.3zM427.9 10.1c0-2.2-2-4.1-4.6-4.1h-54c-2.5 0-4.6 1.8-4.6 4.1v9h63.1v-9z"/></svg><svg version="1.0" viewBox="0 0 1126 1280" id="svg" xmlns="http://www.w3.org/2000/svg"><path d="M399.8 1.6c-6.2 3.3-5.8-15.4-5.8 243.9V482H234l-3.1 2.8c-3.9 3.5-4.3 8.9-.8 13.6 6.6 9 331.6 416.5 334 418.8 2.2 2.1 3.9 2.8 6.9 2.8 2.9 0 4.7-.7 7-2.8 1.6-1.5 77.9-96.8 169.5-211.7 116.3-146 166.7-209.9 167.1-212.1.7-3.6-.8-7-4-9.6-1.9-1.6-7.8-1.8-82.3-1.8H748V7l-2.9-3.2-2.9-3.3L572.3.3C423.5.1 402.2.3 399.8 1.6z"/><path d="M168.7 815.1l-28.8.8-3.2 2.7c-1.7 1.5-33.2 28.6-69.9 60.2L0 936.3V1280h1126v-171.8l-.1-171.7-70-60.3-70-60.3-25.2-.5c-13.9-.3-26.7-.7-28.4-.9l-3.3-.4V974H564.5c-242.3 0-364.5.3-364.5 1 0 .5-.3 1-.7 1-.5 0-.7-36.4-.5-81 .1-44.5-.1-80.9-.5-80.8-.5 0-13.7.5-29.6.9z"/></svg></svg>